<svg width="274" height="274" fill="none" xmlns="http://www.w3.org/2000/svg"><g clip-path="url(#a)"><circle cx="137" cy="137" r="137" fill="#fff"/><path d="M64.72 147c0 .064.128.021.384-.128.256-.171.48-.491.672-.96.2133-.491.32-1.195.32-2.112v-15.712c0-.875-.1067-1.536-.32-1.984-.192-.469-.416-.789-.672-.96-.256-.171-.384-.224-.384-.16h11.584v3.2c-.384-1.28-1.536-1.92-3.456-1.92H68.4v9.088h5.504c.4267 0 .7893-.064 1.088-.192.2987-.149.5227-.299.672-.448.1493-.149.2347-.245.256-.288v3.104c-.0213-.043-.1067-.139-.256-.288-.1493-.149-.3733-.288-.672-.416-.2773-.128-.6293-.192-1.056-.192H68.4v9.088h4.992c.96 0 1.7813-.192 2.464-.576.704-.405 1.2053-.917 1.504-1.536L76.784 147H64.72Zm32.3523 0c.384-.064.576-.256.576-.576 0-.384-.16-.811-.48-1.28-.32-.491-.5014-.768-.544-.832l-4.48-6.912-5.024 6.72c-.32.427-.576.811-.768 1.152-.1707.32-.256.619-.256.896 0 .469.3413.747 1.024.832h-4.8c0 .043.128-.011.384-.16s.6186-.448 1.088-.896c.4906-.469 1.0773-1.163 1.76-2.08l5.824-7.712-5.152-7.968c-.5974-.917-1.1307-1.611-1.6-2.08-.4694-.469-.8534-.779-1.152-.928-.2987-.171-.448-.235-.448-.192h5.344c-.4054.085-.608.288-.608.608s.2346.843.704 1.568l4.448 6.912 4.6399-6.144c.6614-.875.9921-1.579.9921-2.112 0-.491-.32-.768-.96-.832h4.7677c0-.021-.138.032-.416.16-.256.107-.597.352-1.024.736-.405.363-.874.907-1.4077 1.632l-5.824 7.776 5.152 8c.6826 1.067 1.2907 1.877 1.8237 2.432.534.533.96.896 1.28 1.088.32.171.48.235.48.192h-5.3437Zm25.0027-16.064c0 1.237-.299 2.347-.896 3.328-.576.96-1.408 1.717-2.496 2.272-1.088.555-2.368.832-3.84.832-.896 0-1.856-.096-2.88-.288v6.976c0 .832.106 1.472.32 1.92.213.427.448.715.704.864.256.149.384.203.384.16h-5.088c0 .043.128-.011.384-.16s.48-.437.672-.864c.213-.427.32-1.067.32-1.92v-16.032c0-.853-.107-1.504-.32-1.952-.192-.448-.416-.747-.672-.896-.256-.171-.384-.235-.384-.192h6.272c1.088 0 1.984.075 2.688.224.704.128 1.322.331 1.856.608.96.491 1.696 1.205 2.208 2.144.512.917.768 1.909.768 2.976Zm-2.464.416c0-1.515-.47-2.741-1.408-3.68-.939-.939-2.187-1.408-3.744-1.408h-2.496v9.568c.917.171 1.877.256 2.88.256 1.493 0 2.656-.427 3.488-1.28.853-.875 1.28-2.027 1.28-3.456Zm9.579-3.392c0-.853-.107-1.493-.32-1.92-.192-.448-.416-.747-.672-.896-.256-.149-.384-.203-.384-.16h5.088c0-.043-.128.011-.384.16s-.491.448-.704.896c-.214.427-.32 1.067-.32 1.92v17.76h5.248c.96 0 1.781-.192 2.464-.576.704-.405 1.205-.917 1.504-1.536l-.576 3.392h-12.32c0 .064.128.021.384-.128.256-.171.48-.491.672-.96.213-.491.32-1.195.32-2.112v-15.84Zm15.639 8.288c0-2.261.48-4.277 1.44-6.048.982-1.771 2.347-3.147 4.096-4.128 1.771-.981 3.808-1.472 6.112-1.472 1.92 0 3.712.427 5.376 1.28 1.686.832 3.03 2.091 4.032 3.776 1.024 1.685 1.536 3.712 1.536 6.08 0 2.261-.49 4.277-1.472 6.048-.96 1.771-2.325 3.147-4.096 4.128-1.749.981-3.776 1.472-6.08 1.472-1.92 0-3.722-.416-5.408-1.248-1.664-.853-3.008-2.123-4.032-3.808-1.002-1.685-1.504-3.712-1.504-6.08Zm20.032-.032c0-1.941-.405-3.691-1.216-5.248-.789-1.579-1.888-2.805-3.296-3.68-1.386-.896-2.954-1.344-4.704-1.344-1.6 0-3.029.405-4.288 1.216-1.237.811-2.208 1.963-2.912 3.456-.704 1.472-1.056 3.189-1.056 5.152 0 1.941.395 3.701 1.184 5.28.811 1.557 1.91 2.784 3.296 3.68 1.408.875 2.987 1.312 4.736 1.312 1.6 0 3.019-.405 4.256-1.216 1.259-.811 2.24-1.952 2.944-3.424.704-1.493 1.056-3.221 1.056-5.184Zm15.26-.288c.981 0 1.834-.224 2.56-.672.725-.469 1.269-1.067 1.632-1.792.384-.747.576-1.525.576-2.336 0-.832-.182-1.611-.544-2.336-.342-.747-.875-1.355-1.6-1.824-.726-.469-1.611-.704-2.656-.704h-2.72v17.792c0 .853.106 1.504.32 1.952.213.427.448.715.704.864.256.128.384.171.384.128h-5.088c0 .043.128-.011.384-.16s.48-.437.672-.864c.213-.427.32-1.067.32-1.92v-16c0-.875-.107-1.536-.32-1.984-.192-.469-.416-.779-.672-.928-.256-.171-.384-.224-.384-.16h6.336c1.664 0 3.029.277 4.096.832 1.088.533 1.866 1.237 2.336 2.112.49.853.736 1.792.736 2.816 0 .853-.203 1.696-.608 2.528-.406.811-.992 1.525-1.76 2.144-.747.597-1.622 1.013-2.624 1.248l-.512.096 5.632 7.168c.746.832 1.365 1.472 1.856 1.92.49.448.842.747 1.056.896.234.149.373.235.416.256h-3.744l-8.704-11.072h1.92ZM195.533 147c0 .064.128.021.384-.128.256-.171.48-.491.672-.96.213-.491.32-1.195.32-2.112v-15.712c0-.875-.107-1.536-.32-1.984-.192-.469-.416-.789-.672-.96-.256-.171-.384-.224-.384-.16h11.584v3.2c-.384-1.28-1.536-1.92-3.456-1.92h-4.448v9.088h5.504c.426 0 .789-.064 1.088-.192.298-.149.522-.299.672-.448.149-.149.234-.245.256-.288v3.104c-.022-.043-.107-.139-.256-.288-.15-.149-.374-.288-.672-.416-.278-.128-.63-.192-1.056-.192h-5.536v9.088h4.992c.96 0 1.781-.192 2.464-.576.704-.405 1.205-.917 1.504-1.536l-.576 3.392h-12.064Z" fill="#0B0D17"/></g><defs><clipPath id="a"><path fill="#fff" d="M0 0h274v274H0z"/></clipPath></defs></svg>